# xmcd
#
# Track frame offsets: 
#        150
#        17285
#        47855
#        76382
#        108487
#        120537
#        146260
#        169005
#        198345
#
# Disc length: 2967 seconds
#
# Revision: 0
# Processed by: cddbd v1.5.1PL0 Copyright (c) Steve Scherf et al.
# Submitted via: ExactAudioCopy v0.95a5
#
DISCID=6a0b9509
DTITLE=The Spoils - Hurtsville
DYEAR=2000
DGENRE=Country
TTITLE0=Tale Of The Bull
TTITLE1=Fading Out Down
TTITLE2=Gimme Some Love
TTITLE3=Two Of Us
TTITLE4=Intermission
TTITLE5=Gone Away
TTITLE6=Blood On The Ground
TTITLE7=Bitter
TTITLE8=My Estranged Elissa
EXTD=
EXTT0=
EXTT1=
EXTT2=
EXTT3=
EXTT4=
EXTT5=
EXTT6=
EXTT7=
EXTT8=
PLAYORDER=
